# xmcd
#
# Track frame offsets: 
#        150
#        12583
#        31939
#        49480
#        69275
#        84461
#        101014
#        118756
#        137779
#        150414
#
# Disc length: 2231 seconds
#
# Revision: 1
# Processed by: cddbd v1.5.2PL0 Copyright (c) Steve Scherf et al.
# Submitted via: ExactAudioCopy v0.99pb4
#
DISCID=8008b50a
DTITLE=Acappella - The Firemen - The Firemen
DYEAR=2001
DGENRE=Christian Acappella
TTITLE0=Can I Come
TTITLE1=Can You See His Blood?
TTITLE2=Let Me See
TTITLE3=Higher Perspective
TTITLE4=Pharoah
TTITLE5=Let Me Show You (The Way)
TTITLE6=I Know A Man (His Name Is Jesus)
TTITLE7=The Little Girl
TTITLE8=Nothing But Love
TTITLE9=Dive
EXTD=YEAR: 2001
EXTT0=
EXTT1=
EXTT2=
EXTT3=
EXTT4=
EXTT5=
EXTT6=
EXTT7=
EXTT8=
EXTT9=
PLAYORDER=
